<?xml version="1.0" encoding="utf-8"?>
<!-- Generator: Adobe Illustrator 15.1.0, SVG Export Plug-In . SVG Version: 6.00 Build 0)  -->
<!DOCTYPE svg PUBLIC "-//W3C//DTD SVG 1.1//EN" "http://www.w3.org/Graphics/SVG/1.1/DTD/svg11.dtd">
<svg version="1.1"
	 id="svg2" xmlns:inkscape="http://www.inkscape.org/namespaces/inkscape" xmlns:rdf="http://www.w3.org/1999/02/22-rdf-syntax-ns#" xmlns:sodipodi="http://sodipodi.sourceforge.net/DTD/sodipodi-0.dtd" xmlns:cc="http://creativecommons.org/ns#" xmlns:dc="http://purl.org/dc/elements/1.1/" xmlns:svg="http://www.w3.org/2000/svg" inkscape:version="0.48.1 r9760" sodipodi:docname="twitter_bootstrap_logo.svg"
	 xmlns="http://www.w3.org/2000/svg" xmlns:xlink="http://www.w3.org/1999/xlink" x="0px" y="0px" width="2000px"
	 height="2008.275px" viewBox="0 0 2000 2008.275" enable-background="new 0 0 2000 2008.275" xml:space="preserve">
<sodipodi:namedview  id="namedview2996" bordercolor="#666666" inkscape:cx="116.80866" pagecolor="#ffffff" inkscape:zoom="0.24896372" fit-margin-top="0" fit-margin-left="0" showgrid="false" borderopacity="1" gridtolerance="10" objecttolerance="10" inkscape:cy="407.66551" guidetolerance="10" inkscape:window-maximized="0" inkscape:current-layer="svg2" inkscape:window-y="0" inkscape:window-x="0" fit-margin-bottom="0" fit-margin-right="0" inkscape:window-height="623" inkscape:window-width="864" inkscape:pageshadow="2" inkscape:pageopacity="0">
	</sodipodi:namedview>
<g>
	<path fill="#563d7c" d="M1015.104,864.568c51.076,0.001,89.805-11.109,116.187-33.33c26.38-22.219,39.57-54.993,39.571-98.322
		c-0.001-42.772-13.191-75.269-39.571-97.489c-26.381-22.774-65.109-34.162-116.187-34.163H835.772v263.304L1015.104,864.568
		L1015.104,864.568z"/>
	<path fill="#563d7c" d="M1173.387,1123.706c-32.556-27.219-81.668-40.828-147.338-40.829H835.772v325.798h190.276
		c65.109,0,113.94-13.609,146.496-40.829c33.115-27.219,49.673-68.325,49.674-123.319
		C1222.218,1190.644,1205.94,1150.37,1173.387,1123.706z"/>
	<path fill="#563d7c" d="M1676.924,0H323.077C144.646,0,0,144.646,0,323.077v1362.122c0,178.431,144.646,323.077,323.077,323.077
		h1353.847c178.431,0,323.076-144.646,323.076-323.077V323.077C2000,144.646,1855.354,0,1676.924,0z M1423.44,1538.66
		c-81.949,58.883-206.556,88.323-373.818,88.323H511.628V382.954h486.637c174.56,0.001,300.849,26.109,378.869,78.325
		c78.579,52.218,117.87,135.819,117.87,250.806c-0.001,60.55-14.313,112.211-42.938,154.982
		c-28.626,42.219-70.162,73.604-124.605,94.157c69.599,19.999,123.482,56.939,161.651,110.821
		c38.166,53.884,57.25,119.987,57.251,198.312C1546.361,1390.344,1505.388,1479.778,1423.44,1538.66z"/>
</g>
</svg>
