<?xml version="1.0" encoding="UTF-8" standalone="no"?>
<!DOCTYPE svg PUBLIC "-//W3C//DTD SVG 1.1//EN"
 "http://www.w3.org/Graphics/SVG/1.1/DTD/svg11.dtd">
<!-- Generated by graphviz version 2.36.0 (20140111.2315)
 -->
<!-- Title: kotti_fixtures Pages: 1 -->
<svg width="774pt" height="476pt"
 viewBox="0.00 0.00 774.00 476.00" xmlns="http://www.w3.org/2000/svg" xmlns:xlink="http://www.w3.org/1999/xlink">
<g id="graph0" class="graph" transform="scale(1 1) rotate(0) translate(4 472)">
<title>kotti_fixtures</title>
<polygon fill="white" stroke="none" points="-4,4 -4,-472 770,-472 770,4 -4,4"/>
<!-- allwarnings -->
<g id="node1" class="node"><title>allwarnings</title>
<ellipse fill="none" stroke="black" cx="286" cy="-450" rx="51.4931" ry="18"/>
<text text-anchor="middle" x="286" y="-446.3" font-family="Times,serif" font-size="14.00">allwarnings</text>
</g>
<!-- mock_filedepot -->
<g id="node2" class="node"><title>mock_filedepot</title>
<ellipse fill="none" stroke="black" cx="422" cy="-450" rx="65.9423" ry="18"/>
<text text-anchor="middle" x="422" y="-446.3" font-family="Times,serif" font-size="14.00">mock_filedepot</text>
</g>
<!-- app -->
<g id="node3" class="node"><title>app</title>
<ellipse fill="none" stroke="black" cx="279" cy="-90" rx="27" ry="18"/>
<text text-anchor="middle" x="279" y="-86.3" font-family="Times,serif" font-size="14.00">app</text>
</g>
<!-- webtest -->
<g id="node4" class="node"><title>webtest</title>
<ellipse fill="none" stroke="black" cx="279" cy="-18" rx="37.5442" ry="18"/>
<text text-anchor="middle" x="279" y="-14.3" font-family="Times,serif" font-size="14.00">webtest</text>
</g>
<!-- app&#45;&gt;webtest -->
<g id="edge1" class="edge"><title>app&#45;&gt;webtest</title>
<path fill="none" stroke="black" d="M279,-71.6966C279,-63.9827 279,-54.7125 279,-46.1124"/>
<polygon fill="black" stroke="black" points="282.5,-46.1043 279,-36.1043 275.5,-46.1044 282.5,-46.1043"/>
</g>
<!-- config -->
<g id="node5" class="node"><title>config</title>
<ellipse fill="none" stroke="black" cx="410" cy="-234" rx="33.2209" ry="18"/>
<text text-anchor="middle" x="410" y="-230.3" font-family="Times,serif" font-size="14.00">config</text>
</g>
<!-- db_session -->
<g id="node6" class="node"><title>db_session</title>
<ellipse fill="none" stroke="black" cx="656" cy="-162" rx="49.0941" ry="18"/>
<text text-anchor="middle" x="656" y="-158.3" font-family="Times,serif" font-size="14.00">db_session</text>
</g>
<!-- config&#45;&gt;db_session -->
<g id="edge2" class="edge"><title>config&#45;&gt;db_session</title>
<path fill="none" stroke="black" d="M438.843,-224.867C475.583,-214.498 541.032,-195.994 597,-180 600.812,-178.911 604.761,-177.779 608.727,-176.641"/>
<polygon fill="black" stroke="black" points="609.909,-179.943 618.553,-173.816 607.976,-173.215 609.909,-179.943"/>
</g>
<!-- dummy_request -->
<g id="node7" class="node"><title>dummy_request</title>
<ellipse fill="none" stroke="black" cx="410" cy="-162" rx="68.3664" ry="18"/>
<text text-anchor="middle" x="410" y="-158.3" font-family="Times,serif" font-size="14.00">dummy_request</text>
</g>
<!-- config&#45;&gt;dummy_request -->
<g id="edge3" class="edge"><title>config&#45;&gt;dummy_request</title>
<path fill="none" stroke="black" d="M410,-215.697C410,-207.983 410,-198.712 410,-190.112"/>
<polygon fill="black" stroke="black" points="413.5,-190.104 410,-180.104 406.5,-190.104 413.5,-190.104"/>
</g>
<!-- events -->
<g id="node8" class="node"><title>events</title>
<ellipse fill="none" stroke="black" cx="34" cy="-162" rx="33.2209" ry="18"/>
<text text-anchor="middle" x="34" y="-158.3" font-family="Times,serif" font-size="14.00">events</text>
</g>
<!-- config&#45;&gt;events -->
<g id="edge4" class="edge"><title>config&#45;&gt;events</title>
<path fill="none" stroke="black" d="M377.234,-230.29C316.791,-224.746 184.047,-210.018 76,-180 73.5462,-179.318 71.0413,-178.537 68.5376,-177.693"/>
<polygon fill="black" stroke="black" points="69.59,-174.351 58.9963,-174.197 67.182,-180.923 69.59,-174.351"/>
</g>
<!-- workflow -->
<g id="node9" class="node"><title>workflow</title>
<ellipse fill="none" stroke="black" cx="279" cy="-162" rx="44.271" ry="18"/>
<text text-anchor="middle" x="279" y="-158.3" font-family="Times,serif" font-size="14.00">workflow</text>
</g>
<!-- config&#45;&gt;workflow -->
<g id="edge5" class="edge"><title>config&#45;&gt;workflow</title>
<path fill="none" stroke="black" d="M387.182,-220.807C366.861,-209.949 336.833,-193.903 313.566,-181.47"/>
<polygon fill="black" stroke="black" points="315.165,-178.357 304.696,-176.731 311.866,-184.53 315.165,-178.357"/>
</g>
<!-- db_session&#45;&gt;app -->
<g id="edge11" class="edge"><title>db_session&#45;&gt;app</title>
<path fill="none" stroke="black" d="M619.662,-149.818C612.207,-147.725 604.381,-145.673 597,-144 496.072,-121.129 375.049,-103.648 315.608,-95.7014"/>
<polygon fill="black" stroke="black" points="315.958,-92.2173 305.585,-94.3741 315.039,-99.1567 315.958,-92.2173"/>
</g>
<!-- browser -->
<g id="node14" class="node"><title>browser</title>
<ellipse fill="none" stroke="black" cx="546" cy="-90" rx="38.4949" ry="18"/>
<text text-anchor="middle" x="546" y="-86.3" font-family="Times,serif" font-size="14.00">browser</text>
</g>
<!-- db_session&#45;&gt;browser -->
<g id="edge12" class="edge"><title>db_session&#45;&gt;browser</title>
<path fill="none" stroke="black" d="M632.402,-145.983C616.167,-135.652 594.443,-121.827 576.84,-110.625"/>
<polygon fill="black" stroke="black" points="578.376,-107.455 568.061,-105.039 574.618,-113.36 578.376,-107.455"/>
</g>
<!-- root -->
<g id="node15" class="node"><title>root</title>
<ellipse fill="none" stroke="black" cx="739" cy="-90" rx="27" ry="18"/>
<text text-anchor="middle" x="739" y="-86.3" font-family="Times,serif" font-size="14.00">root</text>
</g>
<!-- db_session&#45;&gt;root -->
<g id="edge13" class="edge"><title>db_session&#45;&gt;root</title>
<path fill="none" stroke="black" d="M674.834,-145.116C686.683,-135.123 702.088,-122.131 714.834,-111.381"/>
<polygon fill="black" stroke="black" points="717.373,-113.818 722.761,-104.695 712.86,-108.467 717.373,-113.818"/>
</g>
<!-- filedepot -->
<g id="node16" class="node"><title>filedepot</title>
<ellipse fill="none" stroke="black" cx="652" cy="-90" rx="42.3701" ry="18"/>
<text text-anchor="middle" x="652" y="-86.3" font-family="Times,serif" font-size="14.00">filedepot</text>
</g>
<!-- db_session&#45;&gt;filedepot -->
<g id="edge14" class="edge"><title>db_session&#45;&gt;filedepot</title>
<path fill="none" stroke="black" d="M655.011,-143.697C654.57,-135.983 654.041,-126.712 653.549,-118.112"/>
<polygon fill="black" stroke="black" points="657.042,-117.888 652.977,-108.104 650.054,-118.288 657.042,-117.888"/>
</g>
<!-- events&#45;&gt;app -->
<g id="edge16" class="edge"><title>events&#45;&gt;app</title>
<path fill="none" stroke="black" d="M59.1222,-150.217C64.6339,-148.024 70.4744,-145.831 76,-144 133.888,-124.817 202.886,-108.056 243.702,-98.7543"/>
<polygon fill="black" stroke="black" points="244.71,-102.115 253.694,-96.4981 243.169,-95.2866 244.71,-102.115"/>
</g>
<!-- workflow&#45;&gt;app -->
<g id="edge23" class="edge"><title>workflow&#45;&gt;app</title>
<path fill="none" stroke="black" d="M279,-143.697C279,-135.983 279,-126.712 279,-118.112"/>
<polygon fill="black" stroke="black" points="282.5,-118.104 279,-108.104 275.5,-118.104 282.5,-118.104"/>
</g>
<!-- connection -->
<g id="node10" class="node"><title>connection</title>
<ellipse fill="none" stroke="black" cx="628" cy="-306" rx="49.0941" ry="18"/>
<text text-anchor="middle" x="628" y="-302.3" font-family="Times,serif" font-size="14.00">connection</text>
</g>
<!-- connection&#45;&gt;db_session -->
<g id="edge7" class="edge"><title>connection&#45;&gt;db_session</title>
<path fill="none" stroke="black" d="M633.888,-287.995C637.267,-277.688 641.351,-264.211 644,-252 648.434,-231.559 651.516,-208.1 653.446,-190.4"/>
<polygon fill="black" stroke="black" points="656.953,-190.509 654.5,-180.202 649.99,-189.79 656.953,-190.509"/>
</g>
<!-- content -->
<g id="node11" class="node"><title>content</title>
<ellipse fill="none" stroke="black" cx="599" cy="-234" rx="36.096" ry="18"/>
<text text-anchor="middle" x="599" y="-230.3" font-family="Times,serif" font-size="14.00">content</text>
</g>
<!-- connection&#45;&gt;content -->
<g id="edge6" class="edge"><title>connection&#45;&gt;content</title>
<path fill="none" stroke="black" d="M620.98,-288.055C617.632,-279.973 613.55,-270.121 609.818,-261.112"/>
<polygon fill="black" stroke="black" points="613.016,-259.688 605.955,-251.789 606.549,-262.367 613.016,-259.688"/>
</g>
<!-- content&#45;&gt;db_session -->
<g id="edge8" class="edge"><title>content&#45;&gt;db_session</title>
<path fill="none" stroke="black" d="M611.934,-217.116C619.017,-208.418 627.949,-197.448 635.917,-187.663"/>
<polygon fill="black" stroke="black" points="638.722,-189.762 642.322,-179.797 633.294,-185.342 638.722,-189.762"/>
</g>
<!-- custom_settings -->
<g id="node12" class="node"><title>custom_settings</title>
<ellipse fill="none" stroke="black" cx="574" cy="-450" rx="67.3907" ry="18"/>
<text text-anchor="middle" x="574" y="-446.3" font-family="Times,serif" font-size="14.00">custom_settings</text>
</g>
<!-- custom_settings&#45;&gt;connection -->
<g id="edge9" class="edge"><title>custom_settings&#45;&gt;connection</title>
<path fill="none" stroke="black" d="M586.955,-432.184C594.106,-422.162 602.606,-408.912 608,-396 616.279,-376.182 621.399,-352.383 624.384,-334.384"/>
<polygon fill="black" stroke="black" points="627.878,-334.688 625.939,-324.273 620.96,-333.624 627.878,-334.688"/>
</g>
<!-- unresolved_settings -->
<g id="node13" class="node"><title>unresolved_settings</title>
<ellipse fill="none" stroke="black" cx="519" cy="-378" rx="80.389" ry="18"/>
<text text-anchor="middle" x="519" y="-374.3" font-family="Times,serif" font-size="14.00">unresolved_settings</text>
</g>
<!-- custom_settings&#45;&gt;unresolved_settings -->
<g id="edge10" class="edge"><title>custom_settings&#45;&gt;unresolved_settings</title>
<path fill="none" stroke="black" d="M560.686,-432.055C553.998,-423.543 545.768,-413.068 538.393,-403.681"/>
<polygon fill="black" stroke="black" points="541.122,-401.49 532.191,-395.789 535.617,-405.815 541.122,-401.49"/>
</g>
<!-- settings -->
<g id="node18" class="node"><title>settings</title>
<ellipse fill="none" stroke="black" cx="469" cy="-306" rx="37.5442" ry="18"/>
<text text-anchor="middle" x="469" y="-302.3" font-family="Times,serif" font-size="14.00">settings</text>
</g>
<!-- unresolved_settings&#45;&gt;settings -->
<g id="edge21" class="edge"><title>unresolved_settings&#45;&gt;settings</title>
<path fill="none" stroke="black" d="M506.896,-360.055C500.789,-351.505 493.268,-340.975 486.54,-331.556"/>
<polygon fill="black" stroke="black" points="489.308,-329.41 480.648,-323.307 483.612,-333.479 489.308,-329.41"/>
</g>
<!-- setup_app -->
<g id="node19" class="node"><title>setup_app</title>
<ellipse fill="none" stroke="black" cx="542" cy="-162" rx="46.2191" ry="18"/>
<text text-anchor="middle" x="542" y="-158.3" font-family="Times,serif" font-size="14.00">setup_app</text>
</g>
<!-- unresolved_settings&#45;&gt;setup_app -->
<g id="edge22" class="edge"><title>unresolved_settings&#45;&gt;setup_app</title>
<path fill="none" stroke="black" d="M520.843,-359.849C524.822,-322.832 534.242,-235.181 539.057,-190.386"/>
<polygon fill="black" stroke="black" points="542.559,-190.549 540.148,-180.232 535.599,-189.801 542.559,-190.549"/>
</g>
<!-- dummy_mailer -->
<g id="node17" class="node"><title>dummy_mailer</title>
<ellipse fill="none" stroke="black" cx="151" cy="-162" rx="65.4659" ry="18"/>
<text text-anchor="middle" x="151" y="-158.3" font-family="Times,serif" font-size="14.00">dummy_mailer</text>
</g>
<!-- dummy_mailer&#45;&gt;app -->
<g id="edge15" class="edge"><title>dummy_mailer&#45;&gt;app</title>
<path fill="none" stroke="black" d="M179.09,-145.638C199.988,-134.209 228.44,-118.65 249.636,-107.058"/>
<polygon fill="black" stroke="black" points="251.428,-110.068 258.522,-102.199 248.069,-103.926 251.428,-110.068"/>
</g>
<!-- settings&#45;&gt;config -->
<g id="edge17" class="edge"><title>settings&#45;&gt;config</title>
<path fill="none" stroke="black" d="M455.612,-289.116C447.993,-280.076 438.306,-268.583 429.82,-258.515"/>
<polygon fill="black" stroke="black" points="432.456,-256.212 423.335,-250.821 427.104,-260.723 432.456,-256.212"/>
</g>
<!-- settings&#45;&gt;content -->
<g id="edge18" class="edge"><title>settings&#45;&gt;content</title>
<path fill="none" stroke="black" d="M493.147,-291.998C513.799,-280.878 543.703,-264.775 566.463,-252.52"/>
<polygon fill="black" stroke="black" points="568.275,-255.519 575.42,-247.697 564.956,-249.356 568.275,-255.519"/>
</g>
<!-- setup_app&#45;&gt;app -->
<g id="edge19" class="edge"><title>setup_app&#45;&gt;app</title>
<path fill="none" stroke="black" d="M507.458,-150.033C500.693,-147.967 493.638,-145.87 487,-144 426.489,-126.951 355.401,-109.356 313.956,-99.3381"/>
<polygon fill="black" stroke="black" points="314.624,-95.8989 304.082,-96.9596 312.984,-102.704 314.624,-95.8989"/>
</g>
<!-- setup_app&#45;&gt;browser -->
<g id="edge20" class="edge"><title>setup_app&#45;&gt;browser</title>
<path fill="none" stroke="black" d="M542.989,-143.697C543.43,-135.983 543.959,-126.712 544.451,-118.112"/>
<polygon fill="black" stroke="black" points="547.946,-118.288 545.023,-108.104 540.958,-117.888 547.946,-118.288"/>
</g>
</g>
</svg>
