<?xml version="1.0" encoding="UTF-8" standalone="no"?>
<!DOCTYPE svg PUBLIC "-//W3C//DTD SVG 1.1//EN"
 "http://www.w3.org/Graphics/SVG/1.1/DTD/svg11.dtd">
<!-- Generated by graphviz version 2.38.0 (20140413.2041)
 -->
<!-- Title: Node Pages: 1 -->
<svg width="280pt" height="184pt"
 viewBox="0.00 0.00 280.17 184.00" xmlns="http://www.w3.org/2000/svg" xmlns:xlink="http://www.w3.org/1999/xlink">
<g id="graph0" class="graph" transform="scale(1 1) rotate(0) translate(4 180)">
<title>Node</title>
<polygon fill="white" stroke="none" points="-4,4 -4,-180 276.166,-180 276.166,4 -4,4"/>
<g id="clust1" class="cluster"><title>cluster_node</title>
<polygon fill="none" stroke="black" points="8,-8 8,-168 127,-168 127,-8 8,-8"/>
<text text-anchor="middle" x="67.5" y="-152.8" font-family="Times,serif" font-size="14.00">Node</text>
</g>
<g id="clust2" class="cluster"><title>cluster_content</title>
<polygon fill="none" stroke="black" points="135,-94 135,-168 205,-168 205,-94 135,-94"/>
<text text-anchor="middle" x="170" y="-152.8" font-family="Times,serif" font-size="14.00">Content</text>
</g>
<!-- node_id -->
<g id="node1" class="node"><title>node_id</title>
<polygon fill="none" stroke="black" points="94,-52 40,-52 40,-16 94,-16 94,-52"/>
<text text-anchor="middle" x="67" y="-29.8" font-family="Times,serif" font-size="14.00">id</text>
</g>
<!-- node_parent_id -->
<g id="node2" class="node"><title>node_parent_id</title>
<polygon fill="none" stroke="black" points="84.3693,-138 15.6307,-138 15.6307,-102 84.3693,-102 84.3693,-138"/>
<text text-anchor="middle" x="50" y="-115.8" font-family="Times,serif" font-size="14.00">parent_id</text>
</g>
<!-- node_parent_id&#45;&gt;node_id -->
<g id="edge1" class="edge"><title>node_parent_id&#45;&gt;node_id</title>
<path fill="none" stroke="black" d="M49.865,-101.58C50.1145,-92.1353 50.952,-80.3166 53.2617,-70 53.8692,-67.2868 54.6548,-64.5075 55.5425,-61.7593"/>
<polygon fill="black" stroke="black" points="58.9218,-62.709 59.0688,-52.1152 52.3475,-60.3051 58.9218,-62.709"/>
<text text-anchor="middle" x="96.3691" y="-72.8" font-family="Times,serif" font-size="14.00">parent/children</text>
</g>
<!-- content_id -->
<g id="node3" class="node"><title>content_id</title>
<polygon fill="none" stroke="black" points="197,-138 143,-138 143,-102 197,-102 197,-138"/>
<text text-anchor="middle" x="170" y="-115.8" font-family="Times,serif" font-size="14.00">id</text>
</g>
<!-- content_id&#45;&gt;node_id -->
<g id="edge2" class="edge"><title>content_id&#45;&gt;node_id</title>
<path fill="none" stroke="black" d="M161.815,-101.909C156.232,-91.6447 148.037,-78.8951 138,-70 128.018,-61.1538 115.399,-53.9845 103.579,-48.4921"/>
<polygon fill="black" stroke="black" points="104.9,-45.2497 94.3352,-44.4469 102.093,-51.6625 104.9,-45.2497"/>
</g>
<!-- Node -->
<g id="node4" class="node"><title>Node</title>
<polygon fill="none" stroke="black" points="269,-138 215,-138 215,-102 269,-102 269,-138"/>
<text text-anchor="middle" x="242" y="-115.8" font-family="Times,serif" font-size="14.00">Node</text>
</g>
<!-- Content -->
<g id="node5" class="node"><title>Content</title>
<polygon fill="none" stroke="black" points="272.332,-52 211.668,-52 211.668,-16 272.332,-16 272.332,-52"/>
<text text-anchor="middle" x="242" y="-29.8" font-family="Times,serif" font-size="14.00">Content</text>
</g>
<!-- Node&#45;&gt;Content -->
<g id="edge3" class="edge"><title>Node&#45;&gt;Content</title>
<path fill="none" stroke="black" d="M242,-101.595C242,-90.2572 242,-75.2271 242,-62.3153"/>
<polygon fill="black" stroke="black" points="245.5,-62.0951 242,-52.0952 238.5,-62.0952 245.5,-62.0951"/>
</g>
</g>
</svg>
