<?xml version="1.0" encoding="UTF-8" standalone="no"?>
<!DOCTYPE svg PUBLIC "-//W3C//DTD SVG 1.1//EN"
 "http://www.w3.org/Graphics/SVG/1.1/DTD/svg11.dtd">
<!-- Generated by graphviz version 2.38.0 (20140413.2041)
 -->
<!-- Title: G Pages: 1 -->
<svg width="638pt" height="188pt"
 viewBox="0.00 0.00 638.00 188.00" xmlns="http://www.w3.org/2000/svg" xmlns:xlink="http://www.w3.org/1999/xlink">
<g id="graph0" class="graph" transform="scale(1 1) rotate(0) translate(4 184)">
<title>G</title>
<polygon fill="white" stroke="none" points="-4,4 -4,-184 634,-184 634,4 -4,4"/>
<!-- / -->
<g id="node1" class="node"><title>/</title>
<polygon fill="none" stroke="black" points="342,-180 288,-180 288,-144 342,-144 342,-180"/>
<text text-anchor="middle" x="315" y="-157.8" font-family="Times,serif" font-size="14.00">/</text>
</g>
<!-- /a -->
<g id="node2" class="node"><title>/a</title>
<polygon fill="none" stroke="black" points="162,-108 108,-108 108,-72 162,-72 162,-108"/>
<text text-anchor="middle" x="135" y="-85.8" font-family="Times,serif" font-size="14.00">/a</text>
</g>
<!-- /&#45;&gt;/a -->
<g id="edge1" class="edge"><title>/&#45;&gt;/a</title>
<path fill="none" stroke="black" d="M287.662,-150.369C256.691,-138.324 206.065,-118.636 171.679,-105.264"/>
<polygon fill="black" stroke="black" points="172.594,-101.865 162.006,-101.502 170.057,-108.389 172.594,-101.865"/>
</g>
<!-- /b -->
<g id="node3" class="node"><title>/b</title>
<polygon fill="none" stroke="black" points="342,-108 288,-108 288,-72 342,-72 342,-108"/>
<text text-anchor="middle" x="315" y="-85.8" font-family="Times,serif" font-size="14.00">/b</text>
</g>
<!-- /&#45;&gt;/b -->
<g id="edge2" class="edge"><title>/&#45;&gt;/b</title>
<path fill="none" stroke="black" d="M315,-143.697C315,-135.983 315,-126.712 315,-118.112"/>
<polygon fill="black" stroke="black" points="318.5,-118.104 315,-108.104 311.5,-118.104 318.5,-118.104"/>
</g>
<!-- /c -->
<g id="node4" class="node"><title>/c</title>
<polygon fill="none" stroke="black" points="522,-108 468,-108 468,-72 522,-72 522,-108"/>
<text text-anchor="middle" x="495" y="-85.8" font-family="Times,serif" font-size="14.00">/c</text>
</g>
<!-- /&#45;&gt;/c -->
<g id="edge3" class="edge"><title>/&#45;&gt;/c</title>
<path fill="none" stroke="black" d="M342.338,-150.369C373.309,-138.324 423.935,-118.636 458.321,-105.264"/>
<polygon fill="black" stroke="black" points="459.943,-108.389 467.994,-101.502 457.406,-101.865 459.943,-108.389"/>
</g>
<!-- /a/a -->
<g id="node5" class="node"><title>/a/a</title>
<polygon fill="none" stroke="black" points="54,-36 0,-36 0,-0 54,-0 54,-36"/>
<text text-anchor="middle" x="27" y="-13.8" font-family="Times,serif" font-size="14.00">/a/a</text>
</g>
<!-- /a&#45;&gt;/a/a -->
<g id="edge4" class="edge"><title>/a&#45;&gt;/a/a</title>
<path fill="none" stroke="black" d="M108.58,-71.8761C94.59,-62.8083 77.2236,-51.5523 62.1142,-41.7592"/>
<polygon fill="black" stroke="black" points="63.8165,-38.6917 53.5213,-36.1898 60.0092,-44.5658 63.8165,-38.6917"/>
</g>
<!-- /a/b -->
<g id="node6" class="node"><title>/a/b</title>
<polygon fill="none" stroke="black" points="126,-36 72,-36 72,-0 126,-0 126,-36"/>
<text text-anchor="middle" x="99" y="-13.8" font-family="Times,serif" font-size="14.00">/a/b</text>
</g>
<!-- /a&#45;&gt;/a/b -->
<g id="edge5" class="edge"><title>/a&#45;&gt;/a/b</title>
<path fill="none" stroke="black" d="M126.101,-71.6966C122.003,-63.7284 117.051,-54.0995 112.507,-45.2641"/>
<polygon fill="black" stroke="black" points="115.483,-43.3965 107.797,-36.1043 109.258,-46.598 115.483,-43.3965"/>
</g>
<!-- /a/c -->
<g id="node7" class="node"><title>/a/c</title>
<polygon fill="none" stroke="black" points="198,-36 144,-36 144,-0 198,-0 198,-36"/>
<text text-anchor="middle" x="171" y="-13.8" font-family="Times,serif" font-size="14.00">/a/c</text>
</g>
<!-- /a&#45;&gt;/a/c -->
<g id="edge6" class="edge"><title>/a&#45;&gt;/a/c</title>
<path fill="none" stroke="black" d="M143.899,-71.6966C147.997,-63.7284 152.949,-54.0995 157.493,-45.2641"/>
<polygon fill="black" stroke="black" points="160.742,-46.598 162.203,-36.1043 154.517,-43.3965 160.742,-46.598"/>
</g>
<!-- /b/a -->
<g id="node8" class="node"><title>/b/a</title>
<polygon fill="none" stroke="black" points="270,-36 216,-36 216,-0 270,-0 270,-36"/>
<text text-anchor="middle" x="243" y="-13.8" font-family="Times,serif" font-size="14.00">/b/a</text>
</g>
<!-- /b&#45;&gt;/b/a -->
<g id="edge7" class="edge"><title>/b&#45;&gt;/b/a</title>
<path fill="none" stroke="black" d="M297.202,-71.6966C288.396,-63.135 277.618,-52.6562 267.999,-43.3045"/>
<polygon fill="black" stroke="black" points="270.203,-40.5657 260.593,-36.1043 265.323,-45.5846 270.203,-40.5657"/>
</g>
<!-- /b/b -->
<g id="node9" class="node"><title>/b/b</title>
<polygon fill="none" stroke="black" points="342,-36 288,-36 288,-0 342,-0 342,-36"/>
<text text-anchor="middle" x="315" y="-13.8" font-family="Times,serif" font-size="14.00">/b/b</text>
</g>
<!-- /b&#45;&gt;/b/b -->
<g id="edge8" class="edge"><title>/b&#45;&gt;/b/b</title>
<path fill="none" stroke="black" d="M315,-71.6966C315,-63.9827 315,-54.7125 315,-46.1124"/>
<polygon fill="black" stroke="black" points="318.5,-46.1043 315,-36.1043 311.5,-46.1044 318.5,-46.1043"/>
</g>
<!-- /b/c -->
<g id="node10" class="node"><title>/b/c</title>
<polygon fill="none" stroke="black" points="414,-36 360,-36 360,-0 414,-0 414,-36"/>
<text text-anchor="middle" x="387" y="-13.8" font-family="Times,serif" font-size="14.00">/b/c</text>
</g>
<!-- /b&#45;&gt;/b/c -->
<g id="edge9" class="edge"><title>/b&#45;&gt;/b/c</title>
<path fill="none" stroke="black" d="M332.798,-71.6966C341.604,-63.135 352.382,-52.6562 362.001,-43.3045"/>
<polygon fill="black" stroke="black" points="364.677,-45.5846 369.407,-36.1043 359.797,-40.5657 364.677,-45.5846"/>
</g>
<!-- /c/a -->
<g id="node11" class="node"><title>/c/a</title>
<polygon fill="none" stroke="black" points="486,-36 432,-36 432,-0 486,-0 486,-36"/>
<text text-anchor="middle" x="459" y="-13.8" font-family="Times,serif" font-size="14.00">/c/a</text>
</g>
<!-- /c&#45;&gt;/c/a -->
<g id="edge10" class="edge"><title>/c&#45;&gt;/c/a</title>
<path fill="none" stroke="black" d="M486.101,-71.6966C482.003,-63.7284 477.051,-54.0995 472.507,-45.2641"/>
<polygon fill="black" stroke="black" points="475.483,-43.3965 467.797,-36.1043 469.258,-46.598 475.483,-43.3965"/>
</g>
<!-- /c/b -->
<g id="node12" class="node"><title>/c/b</title>
<polygon fill="none" stroke="black" points="558,-36 504,-36 504,-0 558,-0 558,-36"/>
<text text-anchor="middle" x="531" y="-13.8" font-family="Times,serif" font-size="14.00">/c/b</text>
</g>
<!-- /c&#45;&gt;/c/b -->
<g id="edge11" class="edge"><title>/c&#45;&gt;/c/b</title>
<path fill="none" stroke="black" d="M503.899,-71.6966C507.997,-63.7284 512.949,-54.0995 517.493,-45.2641"/>
<polygon fill="black" stroke="black" points="520.742,-46.598 522.203,-36.1043 514.517,-43.3965 520.742,-46.598"/>
</g>
<!-- /c/c -->
<g id="node13" class="node"><title>/c/c</title>
<polygon fill="none" stroke="black" points="630,-36 576,-36 576,-0 630,-0 630,-36"/>
<text text-anchor="middle" x="603" y="-13.8" font-family="Times,serif" font-size="14.00">/c/c</text>
</g>
<!-- /c&#45;&gt;/c/c -->
<g id="edge12" class="edge"><title>/c&#45;&gt;/c/c</title>
<path fill="none" stroke="black" d="M521.42,-71.8761C535.41,-62.8083 552.776,-51.5523 567.886,-41.7592"/>
<polygon fill="black" stroke="black" points="569.991,-44.5658 576.479,-36.1898 566.183,-38.6917 569.991,-44.5658"/>
</g>
</g>
</svg>
