<svg xmlns="http://www.w3.org/2000/svg" width="165" height="20">
    <linearGradient id="b" x2="0" y2="100%">
        <stop offset="0" stop-color="#bbb" stop-opacity=".1"/>
        <stop offset="1" stop-opacity=".1"/>
    </linearGradient>
    <mask id="a">
        <rect width="114" height="20" rx="3" fill="#fff"/>
    </mask>

        <rect x="0" y="0" rx="5" ry="5" width="160" height="20"
        style="fill:#555;stroke:#fff;stroke-width:0;opacity:1.0">
            <title>issues found by quantifiedcode.com</title>
        </rect>

        <rect x="44" y="0" rx="0" ry="0" width="30" height="20"
        style="fill:#991f15;stroke:#fff;stroke-width:0;opacity:1.0">
             <title>critical issues</title>
        </rect>
        <rect x="74" y="0" rx="0" ry="0" width="30" height="20"
        style="fill:#dc7f23;stroke:#fff;stroke-width:0;opacity:1.0">
            <title>potential bugs</title>
        </rect>
        <rect x="104" y="0" rx="0" ry="0" width="30" height="20"
        style="fill:#ddb438;stroke:#fff;stroke-width:0;opacity:1.0">
            <title>minor issues</title>
        </rect>

        <rect x="134" y="0" rx="0" ry="0" width="25" height="20"
        style="fill:#53b89c;stroke:#fff;stroke-width:0;opacity:1.0">
            <title>recommendations</title>
        </rect>

        <rect x="134" y="0" rx="5" ry="5" width="30" height="20"
        style="fill:#53b89c;stroke:#fff;stroke-width:0;opacity:1.0">
        </rect>

        <g fill="#fff" text-anchor="middle" font-family="DejaVu Sans,Verdana,Geneva,sans-serif" font-size="11">
            <text x="22" y="15" fill="#010101" fill-opacity=".3">issues</text>
            <text x="23" y="14">issues</text>
            <text x="57" y="15" fill="#010101" fill-opacity=".3">-</text>
            <text x="58" y="14">-</text>
            <text x="87" y="15" fill="#010101" fill-opacity=".3">5</text>
            <text x="88" y="14">5</text>
            <text x="117" y="15" fill="#010101" fill-opacity=".3">25</text>
            <text x="118" y="14">25</text>
            <text x="147" y="15" fill="#010101" fill-opacity=".3">39</text>
            <text x="148" y="14">39</text>
        </g>

        <rect x="0" y="0" rx="5" ry="5" width="170" height="20"
        style="opacity:0.0">
            <title>issues found by quantifiedcode.com in branch master</title>
        </rect>

        <rect x="44" y="0" rx="0" ry="0" width="30" height="20"
        style="opacity:0.0">
             <title>critical issues</title>
        </rect>
        <rect x="74" y="0" rx="0" ry="0" width="30" height="20"
        style="opacity:0.0">
            <title>potential bugs</title>
        </rect>
        <rect x="104" y="0" rx="0" ry="0" width="30" height="20"
        style="opacity:0.0">
            <title>minor issues</title>
        </rect>
        <rect x="134" y="0" rx="0" ry="0" width="30" height="20"
        style="opacity:0.0">
            <title>recommendations</title>
        </rect>


        

</svg>