<?xml version="1.0" encoding="UTF-8" standalone="no"?>
<!DOCTYPE svg PUBLIC "-//W3C//DTD SVG 1.1//EN"
 "http://www.w3.org/Graphics/SVG/1.1/DTD/svg11.dtd">
<!-- Generated by graphviz version 2.38.0 (20140413.2041)
 -->
<!-- Title: resources Pages: 1 -->
<svg width="359pt" height="98pt"
 viewBox="0.00 0.00 358.65 98.00" xmlns="http://www.w3.org/2000/svg" xmlns:xlink="http://www.w3.org/1999/xlink">
<g id="graph0" class="graph" transform="scale(1 1) rotate(0) translate(4 94)">
<title>resources</title>
<polygon fill="white" stroke="none" points="-4,4 -4,-94 354.648,-94 354.648,4 -4,4"/>
<!-- Node -->
<g id="node1" class="node"><title>Node</title>
<polygon fill="none" stroke="black" points="54,-63 0,-63 0,-27 54,-27 54,-63"/>
<text text-anchor="middle" x="27" y="-40.8" font-family="Times,serif" font-size="14.00">Node</text>
</g>
<!-- Content -->
<g id="node2" class="node"><title>Content</title>
<polygon fill="none" stroke="black" points="150.497,-63 89.8336,-63 89.8336,-27 150.497,-27 150.497,-63"/>
<text text-anchor="middle" x="120.166" y="-40.8" font-family="Times,serif" font-size="14.00">Content</text>
</g>
<!-- Node&#45;&gt;Content -->
<g id="edge1" class="edge"><title>Node&#45;&gt;Content</title>
<path fill="none" stroke="black" d="M54.3688,-45C62.2947,-45 71.1693,-45 79.7471,-45"/>
<polygon fill="black" stroke="black" points="79.9794,-48.5001 89.9793,-45 79.9793,-41.5001 79.9794,-48.5001"/>
</g>
<!-- Document -->
<g id="node3" class="node"><title>Document</title>
<polygon fill="none" stroke="black" points="260.808,-90 186.172,-90 186.172,-54 260.808,-54 260.808,-90"/>
<text text-anchor="middle" x="223.49" y="-67.8" font-family="Times,serif" font-size="14.00">Document</text>
</g>
<!-- Content&#45;&gt;Document -->
<g id="edge2" class="edge"><title>Content&#45;&gt;Document</title>
<path fill="none" stroke="black" d="M150.473,-52.8095C158.541,-54.9595 167.494,-57.3452 176.268,-59.6832"/>
<polygon fill="black" stroke="black" points="175.477,-63.0946 186.041,-62.2875 177.28,-56.3306 175.477,-63.0946"/>
</g>
<!-- File -->
<g id="node4" class="node"><title>File</title>
<polygon fill="none" stroke="black" points="250.49,-36 196.49,-36 196.49,-0 250.49,-0 250.49,-36"/>
<text text-anchor="middle" x="223.49" y="-13.8" font-family="Times,serif" font-size="14.00">File</text>
</g>
<!-- Content&#45;&gt;File -->
<g id="edge3" class="edge"><title>Content&#45;&gt;File</title>
<path fill="none" stroke="black" d="M150.473,-37.1905C161.684,-34.2031 174.602,-30.7607 186.375,-27.6234"/>
<polygon fill="black" stroke="black" points="187.593,-30.9211 196.355,-24.9641 185.791,-24.1571 187.593,-30.9211"/>
</g>
<!-- Image -->
<g id="node5" class="node"><title>Image</title>
<polygon fill="none" stroke="black" points="350.648,-36 296.648,-36 296.648,-0 350.648,-0 350.648,-36"/>
<text text-anchor="middle" x="323.648" y="-13.8" font-family="Times,serif" font-size="14.00">Image</text>
</g>
<!-- File&#45;&gt;Image -->
<g id="edge4" class="edge"><title>File&#45;&gt;Image</title>
<path fill="none" stroke="black" d="M250.537,-18C261.519,-18 274.491,-18 286.384,-18"/>
<polygon fill="black" stroke="black" points="286.48,-21.5001 296.48,-18 286.48,-14.5001 286.48,-21.5001"/>
</g>
</g>
</svg>
