<?xml version="1.0" encoding="UTF-8" standalone="no"?>
<!DOCTYPE svg PUBLIC "-//W3C//DTD SVG 1.1//EN"
 "http://www.w3.org/Graphics/SVG/1.1/DTD/svg11.dtd">
<!-- Generated by graphviz version 2.38.0 (20140413.2041)
 -->
<!-- Title: Security Pages: 1 -->
<svg width="274pt" height="223pt"
 viewBox="0.00 0.00 274.03 222.75" xmlns="http://www.w3.org/2000/svg" xmlns:xlink="http://www.w3.org/1999/xlink">
<g id="graph0" class="graph" transform="scale(1 1) rotate(0) translate(4 218.75)">
<title>Security</title>
<polygon fill="white" stroke="none" points="-4,4 -4,-218.75 270.031,-218.75 270.031,4 -4,4"/>
<!-- Group -->
<g id="node1" class="node"><title>Group</title>
<polygon fill="none" stroke="black" points="187,-208 133,-208 133,-172 187,-172 187,-208"/>
<text text-anchor="middle" x="160" y="-185.8" font-family="Times,serif" font-size="14.00">Group</text>
</g>
<!-- Group&#45;&gt;Group -->
<g id="edge1" class="edge"><title>Group:n&#45;&gt;Group:s</title>
<path fill="none" stroke="black" d="M160,-208C175,-218.5 205,-218.5 205,-190 205,-166.621 184.813,-162.42 169.278,-167.461"/>
<polygon fill="black" stroke="black" points="167.445,-164.462 160,-172 170.521,-170.75 167.445,-164.462"/>
<text text-anchor="middle" x="235.516" y="-185.8" font-family="Times,serif" font-size="14.00">member of</text>
</g>
<!-- Role -->
<g id="node3" class="node"><title>Role</title>
<polygon fill="none" stroke="black" points="123,-122 69,-122 69,-86 123,-86 123,-122"/>
<text text-anchor="middle" x="96" y="-99.8" font-family="Times,serif" font-size="14.00">Role</text>
</g>
<!-- Group&#45;&gt;Role -->
<g id="edge4" class="edge"><title>Group&#45;&gt;Role</title>
<path fill="none" stroke="black" d="M150.153,-171.677C144.408,-162.046 136.777,-150.02 129,-140 126.35,-136.586 123.423,-133.122 120.439,-129.768"/>
<polygon fill="black" stroke="black" points="122.829,-127.196 113.477,-122.215 117.682,-131.94 122.829,-127.196"/>
<text text-anchor="middle" x="181.542" y="-142.8" font-family="Times,serif" font-size="14.00">has (in context)</text>
</g>
<!-- User -->
<g id="node2" class="node"><title>User</title>
<polygon fill="none" stroke="black" points="54,-208 0,-208 0,-172 54,-172 54,-208"/>
<text text-anchor="middle" x="27" y="-185.8" font-family="Times,serif" font-size="14.00">User</text>
</g>
<!-- User&#45;&gt;Group -->
<g id="edge2" class="edge"><title>User&#45;&gt;Group</title>
<path fill="none" stroke="black" d="M54.2355,-190C73.9593,-190 100.863,-190 122.599,-190"/>
<polygon fill="black" stroke="black" points="122.801,-193.5 132.801,-190 122.801,-186.5 122.801,-193.5"/>
<text text-anchor="middle" x="93.5" y="-195.8" font-family="Times,serif" font-size="14.00">member of</text>
</g>
<!-- User&#45;&gt;Role -->
<g id="edge3" class="edge"><title>User&#45;&gt;Role</title>
<path fill="none" stroke="black" d="M27.5205,-171.757C28.5866,-161.688 31.2983,-149.196 37.917,-140 43.5737,-132.141 51.5912,-125.719 59.8686,-120.622"/>
<polygon fill="black" stroke="black" points="61.8279,-123.536 68.8531,-115.605 58.4156,-117.424 61.8279,-123.536"/>
<text text-anchor="middle" x="81.5415" y="-142.8" font-family="Times,serif" font-size="14.00">has (in context)</text>
</g>
<!-- Permission -->
<g id="node4" class="node"><title>Permission</title>
<polygon fill="none" stroke="black" points="135.228,-36 56.7721,-36 56.7721,-0 135.228,-0 135.228,-36"/>
<text text-anchor="middle" x="96" y="-13.8" font-family="Times,serif" font-size="14.00">Permission</text>
</g>
<!-- Role&#45;&gt;Permission -->
<g id="edge5" class="edge"><title>Role&#45;&gt;Permission</title>
<path fill="none" stroke="black" d="M96,-85.5951C96,-74.2572 96,-59.2271 96,-46.3153"/>
<polygon fill="black" stroke="black" points="99.5001,-46.0951 96,-36.0952 92.5001,-46.0952 99.5001,-46.0951"/>
<text text-anchor="middle" x="119.328" y="-56.8" font-family="Times,serif" font-size="14.00">contains</text>
</g>
</g>
</svg>
